<svg xmlns="http://www.w3.org/2000/svg" viewBox="0 0 1920 1080"><g transform="
          rotate(0 960 540) 
          translate(-0 -0)
          scale(1)
        "><rect width="1920" height="1080" fill="rgb(116, 116, 232)"></rect><g transform="translate(0, 0)"><path fill="rgb(122, 122, 227)" fill-opacity="1" d="M0,13.456L53.333,48.468C106.667,83.48,213.333,153.505,320,170.726C426.667,187.948,533.333,152.366,640,130.178C746.667,107.99,853.333,99.195,960,90.93C1066.667,82.666,1173.333,74.931,1280,77.242C1386.667,79.552,1493.333,91.908,1600,109.002C1706.667,126.095,1813.333,147.925,1866.667,158.841L1920,169.756L1920,1080L1866.667,1080C1813.333,1080,1706.667,1080,1600,1080C1493.333,1080,1386.667,1080,1280,1080C1173.333,1080,1066.667,1080,960,1080C853.333,1080,746.667,1080,640,1080C533.333,1080,426.667,1080,320,1080C213.333,1080,106.667,1080,53.333,1080L0,1080Z"></path></g><g transform="translate(0, 270)"><path fill="rgb(127, 128, 222)" fill-opacity="1" d="M0,220.913L53.333,202.569C106.667,184.225,213.333,147.537,320,114.684C426.667,81.831,533.333,52.814,640,45.737C746.667,38.66,853.333,53.524,960,88.453C1066.667,123.383,1173.333,178.377,1280,194.333C1386.667,210.288,1493.333,187.206,1600,175.094C1706.667,162.982,1813.333,161.841,1866.667,161.27L1920,160.7L1920,810L1866.667,810C1813.333,810,1706.667,810,1600,810C1493.333,810,1386.667,810,1280,810C1173.333,810,1066.667,810,960,810C853.333,810,746.667,810,640,810C533.333,810,426.667,810,320,810C213.333,810,106.667,810,53.333,810L0,810Z"></path></g><g transform="translate(0, 540)"><path fill="rgb(133, 134, 217)" fill-opacity="1" d="M0,169.62L53.333,170.084C106.667,170.547,213.333,171.475,320,177.307C426.667,183.14,533.333,193.878,640,189.886C746.667,185.895,853.333,167.174,960,177.173C1066.667,187.173,1173.333,225.893,1280,209.837C1386.667,193.78,1493.333,122.945,1600,112.035C1706.667,101.124,1813.333,150.137,1866.667,174.643L1920,199.15L1920,540L1866.667,540C1813.333,540,1706.667,540,1600,540C1493.333,540,1386.667,540,1280,540C1173.333,540,1066.667,540,960,540C853.333,540,746.667,540,640,540C533.333,540,426.667,540,320,540C213.333,540,106.667,540,53.333,540L0,540Z"></path></g><g transform="translate(0, 810)"><path fill="rgb(138, 140, 212)" fill-opacity="1" d="M0,80.683L53.333,92.051C106.667,103.418,213.333,126.153,320,122.972C426.667,119.792,533.333,90.697,640,100.938C746.667,111.178,853.333,160.754,960,193.062C1066.667,225.37,1173.333,240.409,1280,247.564C1386.667,254.718,1493.333,253.989,1600,246.044C1706.667,238.098,1813.333,222.938,1866.667,215.357L1920,207.777L1920,270L1866.667,270C1813.333,270,1706.667,270,1600,270C1493.333,270,1386.667,270,1280,270C1173.333,270,1066.667,270,960,270C853.333,270,746.667,270,640,270C533.333,270,426.667,270,320,270C213.333,270,106.667,270,53.333,270L0,270Z"></path></g></g></svg>